<?xml version="1.0" encoding="UTF-8" standalone="yes"?>
<!DOCTYPE svg PUBLIC "-//W3C//DTD SVG 1.1//EN" "http://www.w3.org/Graphics/SVG/1.1/DTD/svg11.dtd">
<svg xmlns="http://www.w3.org/2000/svg" xmlns:xl="http://www.w3.org/1999/xlink" xmlns:dc="http://purl.org/dc/elements/1.1/" version="1.1" viewBox="275.5 -20.3 1068.5 374.8" width="1068.5pt" height="374.8pt" style="zoom: 1;"><metadata>Produced by OmniGraffle 7.4.3 <dc:date>2018-11-02 09:14:56 +0000</dc:date></metadata><defs><marker orient="auto" overflow="visible" markerUnits="strokeWidth" id="FilledArrow_Marker" viewBox="-1 -4 10 8" markerWidth="10" markerHeight="8" color="#7f8080"><g><path d="M 8 0 L 0 -3 L 0 3 Z" fill="currentColor" stroke="currentColor" stroke-width="1"></path></g></marker></defs><g stroke="none" stroke-opacity="1" stroke-dasharray="none" fill="none" fill-opacity="1"><title>Canvas 1</title><g><title>Layer 1</title><circle cx="299.25" cy="330.75" r="23.250037" fill="#dadada"></circle><circle cx="299.25" cy="330.75" r="23.250037" stroke="gray" stroke-linecap="round" stroke-linejoin="round" stroke-width="1"></circle><rect x="276" y="273" width="46.5" height="18" fill="#80ff80"></rect><rect x="276" y="273" width="46.5" height="18" stroke="gray" stroke-linecap="round" stroke-linejoin="round" stroke-width="1"></rect><line x1="299.25" y1="307.5" x2="299.25" y2="300.9" marker-end="url(#FilledArrow_Marker)" stroke="#7f8080" stroke-linecap="round" stroke-linejoin="round" stroke-width="1"></line><circle cx="364.75" cy="330.75" r="23.250037" fill="#dadada"></circle><circle cx="364.75" cy="330.75" r="23.250037" stroke="gray" stroke-linecap="round" stroke-linejoin="round" stroke-width="1"></circle><rect x="341.5" y="273" width="46.5" height="18" fill="#80ff80"></rect><rect x="341.5" y="273" width="46.5" height="18" stroke="gray" stroke-linecap="round" stroke-linejoin="round" stroke-width="1"></rect><line x1="364.75" y1="307.5" x2="364.75" y2="300.9" marker-end="url(#FilledArrow_Marker)" stroke="#7f8080" stroke-linecap="round" stroke-linejoin="round" stroke-width="1"></line><circle cx="430.25" cy="330.75" r="23.250037" fill="#dadada"></circle><circle cx="430.25" cy="330.75" r="23.250037" stroke="gray" stroke-linecap="round" stroke-linejoin="round" stroke-width="1"></circle><rect x="407" y="273" width="46.5" height="18" fill="#80ff80"></rect><rect x="407" y="273" width="46.5" height="18" stroke="gray" stroke-linecap="round" stroke-linejoin="round" stroke-width="1"></rect><line x1="430.25" y1="307.5" x2="430.25" y2="300.9" marker-end="url(#FilledArrow_Marker)" stroke="#7f8080" stroke-linecap="round" stroke-linejoin="round" stroke-width="1"></line><circle cx="495.75" cy="330.75" r="23.250037" fill="#dadada"></circle><circle cx="495.75" cy="330.75" r="23.250037" stroke="gray" stroke-linecap="round" stroke-linejoin="round" stroke-width="1"></circle><rect x="472.5" y="273" width="46.5" height="18" fill="#80ff80"></rect><rect x="472.5" y="273" width="46.5" height="18" stroke="gray" stroke-linecap="round" stroke-linejoin="round" stroke-width="1"></rect><line x1="495.75" y1="307.5" x2="495.75" y2="300.9" marker-end="url(#FilledArrow_Marker)" stroke="#7f8080" stroke-linecap="round" stroke-linejoin="round" stroke-width="1"></line><circle cx="561.25" cy="330.75" r="23.250037" fill="#dadada"></circle><circle cx="561.25" cy="330.75" r="23.250037" stroke="gray" stroke-linecap="round" stroke-linejoin="round" stroke-width="1"></circle><rect x="538" y="273" width="46.5" height="18" fill="#80ff80"></rect><rect x="538" y="273" width="46.5" height="18" stroke="gray" stroke-linecap="round" stroke-linejoin="round" stroke-width="1"></rect><line x1="561.25" y1="307.5" x2="561.25" y2="300.9" marker-end="url(#FilledArrow_Marker)" stroke="#7f8080" stroke-linecap="round" stroke-linejoin="round" stroke-width="1"></line><circle cx="626.75" cy="330.75" r="23.250037" fill="#dadada"></circle><circle cx="626.75" cy="330.75" r="23.250037" stroke="gray" stroke-linecap="round" stroke-linejoin="round" stroke-width="1"></circle><rect x="603.5" y="273" width="46.5" height="18" fill="#80ff80"></rect><rect x="603.5" y="273" width="46.5" height="18" stroke="gray" stroke-linecap="round" stroke-linejoin="round" stroke-width="1"></rect><line x1="626.75" y1="307.5" x2="626.75" y2="300.9" marker-end="url(#FilledArrow_Marker)" stroke="#7f8080" stroke-linecap="round" stroke-linejoin="round" stroke-width="1"></line><circle cx="692.25" cy="330.75" r="23.250037" fill="white"></circle><circle cx="692.25" cy="330.75" r="23.250037" stroke="gray" stroke-linecap="round" stroke-linejoin="round" stroke-width="1"></circle><rect x="669" y="273" width="46.5" height="18" fill="white"></rect><rect x="669" y="273" width="46.5" height="18" stroke="gray" stroke-linecap="round" stroke-linejoin="round" stroke-width="1"></rect><line x1="692.25" y1="307.5" x2="692.25" y2="300.9" marker-end="url(#FilledArrow_Marker)" stroke="#7f8080" stroke-linecap="round" stroke-linejoin="round" stroke-width="1"></line><circle cx="757.75" cy="330.75" r="23.250037" fill="white"></circle><circle cx="757.75" cy="330.75" r="23.250037" stroke="gray" stroke-linecap="round" stroke-linejoin="round" stroke-width="1"></circle><rect x="734.5" y="273" width="46.5" height="18" fill="white"></rect><rect x="734.5" y="273" width="46.5" height="18" stroke="gray" stroke-linecap="round" stroke-linejoin="round" stroke-width="1"></rect><line x1="757.75" y1="307.5" x2="757.75" y2="300.9" marker-end="url(#FilledArrow_Marker)" stroke="#7f8080" stroke-linecap="round" stroke-linejoin="round" stroke-width="1"></line><circle cx="332.75" cy="233.25" r="23.250037" fill="#ff8080"></circle><circle cx="332.75" cy="233.25" r="23.250037" stroke="gray" stroke-linecap="round" stroke-linejoin="round" stroke-width="1"></circle><rect x="309.5" y="175.5" width="46.5" height="18" fill="white"></rect><rect x="309.5" y="175.5" width="46.5" height="18" stroke="gray" stroke-linecap="round" stroke-linejoin="round" stroke-width="1"></rect><line x1="332.75" y1="210" x2="332.75" y2="203.4" marker-end="url(#FilledArrow_Marker)" stroke="#7f8080" stroke-linecap="round" stroke-linejoin="round" stroke-width="1"></line><circle cx="463.25" cy="233.25" r="23.250037" fill="#ff8080"></circle><circle cx="463.25" cy="233.25" r="23.250037" stroke="gray" stroke-linecap="round" stroke-linejoin="round" stroke-width="1"></circle><rect x="440" y="175.5" width="46.5" height="18" fill="white"></rect><rect x="440" y="175.5" width="46.5" height="18" stroke="gray" stroke-linecap="round" stroke-linejoin="round" stroke-width="1"></rect><line x1="463.25" y1="210" x2="463.25" y2="203.4" marker-end="url(#FilledArrow_Marker)" stroke="#7f8080" stroke-linecap="round" stroke-linejoin="round" stroke-width="1"></line><circle cx="593.75" cy="233.25" r="23.250037" fill="#80ffff"></circle><circle cx="593.75" cy="233.25" r="23.250037" stroke="gray" stroke-linecap="round" stroke-linejoin="round" stroke-width="1"></circle><rect x="570.5" y="175.5" width="46.5" height="18" fill="white"></rect><rect x="570.5" y="175.5" width="46.5" height="18" stroke="gray" stroke-linecap="round" stroke-linejoin="round" stroke-width="1"></rect><line x1="593.75" y1="210" x2="593.75" y2="203.4" marker-end="url(#FilledArrow_Marker)" stroke="#7f8080" stroke-linecap="round" stroke-linejoin="round" stroke-width="1"></line><circle cx="724.25" cy="233.25" r="23.250037" fill="white"></circle><circle cx="724.25" cy="233.25" r="23.250037" stroke="gray" stroke-linecap="round" stroke-linejoin="round" stroke-width="1"></circle><rect x="701" y="175.5" width="46.5" height="18" fill="white"></rect><rect x="701" y="175.5" width="46.5" height="18" stroke="gray" stroke-linecap="round" stroke-linejoin="round" stroke-width="1"></rect><line x1="724.25" y1="210" x2="724.25" y2="203.4" marker-end="url(#FilledArrow_Marker)" stroke="#7f8080" stroke-linecap="round" stroke-linejoin="round" stroke-width="1"></line><circle cx="396.25" cy="135.75" r="23.250037" fill="white"></circle><circle cx="396.25" cy="135.75" r="23.250037" stroke="gray" stroke-linecap="round" stroke-linejoin="round" stroke-width="1"></circle><rect x="373" y="78" width="46.5" height="18" fill="white"></rect><rect x="373" y="78" width="46.5" height="18" stroke="gray" stroke-linecap="round" stroke-linejoin="round" stroke-width="1"></rect><line x1="396.25" y1="112.49999" x2="396.25" y2="105.9" marker-end="url(#FilledArrow_Marker)" stroke="#7f8080" stroke-linecap="round" stroke-linejoin="round" stroke-width="1"></line><circle cx="659.25" cy="135.75" r="23.250037" fill="white"></circle><circle cx="659.25" cy="135.75" r="23.250037" stroke="gray" stroke-linecap="round" stroke-linejoin="round" stroke-width="1"></circle><rect x="636" y="78" width="46.5" height="18" fill="white"></rect><rect x="636" y="78" width="46.5" height="18" stroke="gray" stroke-linecap="round" stroke-linejoin="round" stroke-width="1"></rect><line x1="659.25" y1="112.49999" x2="659.25" y2="105.9" marker-end="url(#FilledArrow_Marker)" stroke="#7f8080" stroke-linecap="round" stroke-linejoin="round" stroke-width="1"></line><circle cx="527.75" cy="41.75" r="23.250037" fill="white"></circle><circle cx="527.75" cy="41.75" r="23.250037" stroke="gray" stroke-linecap="round" stroke-linejoin="round" stroke-width="1"></circle><rect x="504.5" y="-16" width="46.5" height="18" fill="white"></rect><rect x="504.5" y="-16" width="46.5" height="18" stroke="gray" stroke-linecap="round" stroke-linejoin="round" stroke-width="1"></rect><line x1="527.75" y1="18.499988" x2="527.75" y2="11.9" marker-end="url(#FilledArrow_Marker)" stroke="#7f8080" stroke-linecap="round" stroke-linejoin="round" stroke-width="1"></line><line x1="305.4346" y1="273" x2="313.9732" y2="260.57445" marker-end="url(#FilledArrow_Marker)" stroke="#7f8080" stroke-linecap="round" stroke-linejoin="round" stroke-width="1"></line><line x1="358.8423" y1="273" x2="350.9436" y2="260.96682" marker-end="url(#FilledArrow_Marker)" stroke="#7f8080" stroke-linecap="round" stroke-linejoin="round" stroke-width="1"></line><line x1="436.3423" y1="273" x2="444.6648" y2="260.70537" marker-end="url(#FilledArrow_Marker)" stroke="#7f8080" stroke-linecap="round" stroke-linejoin="round" stroke-width="1"></line><line x1="489.75" y1="273" x2="481.6408" y2="260.83618" marker-end="url(#FilledArrow_Marker)" stroke="#7f8080" stroke-linecap="round" stroke-linejoin="round" stroke-width="1"></line><line x1="567.25" y1="273" x2="575.3592" y2="260.83618" marker-end="url(#FilledArrow_Marker)" stroke="#7f8080" stroke-linecap="round" stroke-linejoin="round" stroke-width="1"></line><line x1="620.6577" y1="273" x2="612.3352" y2="260.70537" marker-end="url(#FilledArrow_Marker)" stroke="#7f8080" stroke-linecap="round" stroke-linejoin="round" stroke-width="1"></line><line x1="698.1577" y1="273" x2="706.0564" y2="260.96682" marker-end="url(#FilledArrow_Marker)" stroke="#7f8080" stroke-linecap="round" stroke-linejoin="round" stroke-width="1"></line><line x1="751.5654" y1="273" x2="743.0268" y2="260.57445" marker-end="url(#FilledArrow_Marker)" stroke="#7f8080" stroke-linecap="round" stroke-linejoin="round" stroke-width="1"></line><line x1="344.47308" y1="175.5" x2="369.95323" y2="155.93847" marker-end="url(#FilledArrow_Marker)" stroke="#7f8080" stroke-linecap="round" stroke-linejoin="round" stroke-width="1"></line><line x1="450.88077" y1="175.5" x2="423.058" y2="155.2558" marker-end="url(#FilledArrow_Marker)" stroke="#7f8080" stroke-linecap="round" stroke-linejoin="round" stroke-width="1"></line><line x1="605.8423" y1="175.5" x2="632.6547" y2="155.54424" marker-end="url(#FilledArrow_Marker)" stroke="#7f8080" stroke-linecap="round" stroke-linejoin="round" stroke-width="1"></line><line x1="712.25" y1="175.5" x2="685.77234" y2="155.64176" marker-end="url(#FilledArrow_Marker)" stroke="#7f8080" stroke-linecap="round" stroke-linejoin="round" stroke-width="1"></line><line x1="419.5" y1="78.999525" x2="496.39895" y2="52.5381" marker-end="url(#FilledArrow_Marker)" stroke="#7f8080" stroke-linecap="round" stroke-linejoin="round" stroke-width="1"></line><line x1="636" y1="78.999525" x2="559.10105" y2="52.5381" marker-end="url(#FilledArrow_Marker)" stroke="#7f8080" stroke-linecap="round" stroke-linejoin="round" stroke-width="1"></line><circle cx="861.75" cy="330.75" r="23.250037" fill="#dadada"></circle><circle cx="861.75" cy="330.75" r="23.250037" stroke="gray" stroke-linecap="round" stroke-linejoin="round" stroke-width="1"></circle><rect x="838.5" y="273" width="46.5" height="18" fill="#dadada"></rect><rect x="838.5" y="273" width="46.5" height="18" stroke="gray" stroke-linecap="round" stroke-linejoin="round" stroke-width="1"></rect><line x1="861.75" y1="307.5" x2="861.75" y2="300.9" marker-end="url(#FilledArrow_Marker)" stroke="#7f8080" stroke-linecap="round" stroke-linejoin="round" stroke-width="1"></line><circle cx="927.25" cy="330.75" r="23.250037" fill="#dadada"></circle><circle cx="927.25" cy="330.75" r="23.250037" stroke="gray" stroke-linecap="round" stroke-linejoin="round" stroke-width="1"></circle><rect x="904" y="273" width="46.5" height="18" fill="#dadada"></rect><rect x="904" y="273" width="46.5" height="18" stroke="gray" stroke-linecap="round" stroke-linejoin="round" stroke-width="1"></rect><line x1="927.25" y1="307.5" x2="927.25" y2="300.9" marker-end="url(#FilledArrow_Marker)" stroke="#7f8080" stroke-linecap="round" stroke-linejoin="round" stroke-width="1"></line><circle cx="992.75" cy="330.75" r="23.250037" fill="#dadada"></circle><circle cx="992.75" cy="330.75" r="23.250037" stroke="gray" stroke-linecap="round" stroke-linejoin="round" stroke-width="1"></circle><rect x="969.5" y="273" width="46.5" height="18" fill="#dadada"></rect><rect x="969.5" y="273" width="46.5" height="18" stroke="gray" stroke-linecap="round" stroke-linejoin="round" stroke-width="1"></rect><line x1="992.75" y1="307.5" x2="992.75" y2="300.9" marker-end="url(#FilledArrow_Marker)" stroke="#7f8080" stroke-linecap="round" stroke-linejoin="round" stroke-width="1"></line><circle cx="1058.25" cy="330.75" r="23.250037" fill="#dadada"></circle><circle cx="1058.25" cy="330.75" r="23.250037" stroke="gray" stroke-linecap="round" stroke-linejoin="round" stroke-width="1"></circle><rect x="1035" y="273" width="46.5" height="18" fill="#dadada"></rect><rect x="1035" y="273" width="46.5" height="18" stroke="gray" stroke-linecap="round" stroke-linejoin="round" stroke-width="1"></rect><line x1="1058.25" y1="307.5" x2="1058.25" y2="300.9" marker-end="url(#FilledArrow_Marker)" stroke="#7f8080" stroke-linecap="round" stroke-linejoin="round" stroke-width="1"></line><circle cx="1123.75" cy="330.75" r="23.250037" fill="#ff8080"></circle><circle cx="1123.75" cy="330.75" r="23.250037" stroke="gray" stroke-linecap="round" stroke-linejoin="round" stroke-width="1"></circle><rect x="1100.5" y="273" width="46.5" height="18" fill="white"></rect><rect x="1100.5" y="273" width="46.5" height="18" stroke="gray" stroke-linecap="round" stroke-linejoin="round" stroke-width="1"></rect><line x1="1123.75" y1="307.5" x2="1123.75" y2="300.9" marker-end="url(#FilledArrow_Marker)" stroke="#7f8080" stroke-linecap="round" stroke-linejoin="round" stroke-width="1"></line><circle cx="1189.25" cy="330.75" r="23.250037" fill="white"></circle><circle cx="1189.25" cy="330.75" r="23.250037" stroke="gray" stroke-linecap="round" stroke-linejoin="round" stroke-width="1"></circle><rect x="1166" y="273" width="46.5" height="18" fill="white"></rect><rect x="1166" y="273" width="46.5" height="18" stroke="gray" stroke-linecap="round" stroke-linejoin="round" stroke-width="1"></rect><line x1="1189.25" y1="307.5" x2="1189.25" y2="300.9" marker-end="url(#FilledArrow_Marker)" stroke="#7f8080" stroke-linecap="round" stroke-linejoin="round" stroke-width="1"></line><circle cx="1254.75" cy="330.75" r="23.250037" fill="white"></circle><circle cx="1254.75" cy="330.75" r="23.250037" stroke="gray" stroke-linecap="round" stroke-linejoin="round" stroke-width="1"></circle><rect x="1231.5" y="273" width="46.5" height="18" fill="white"></rect><rect x="1231.5" y="273" width="46.5" height="18" stroke="gray" stroke-linecap="round" stroke-linejoin="round" stroke-width="1"></rect><line x1="1254.75" y1="307.5" x2="1254.75" y2="300.9" marker-end="url(#FilledArrow_Marker)" stroke="#7f8080" stroke-linecap="round" stroke-linejoin="round" stroke-width="1"></line><circle cx="1320.25" cy="330.75" r="23.250037" fill="white"></circle><circle cx="1320.25" cy="330.75" r="23.250037" stroke="gray" stroke-linecap="round" stroke-linejoin="round" stroke-width="1"></circle><rect x="1297" y="273" width="46.5" height="18" fill="white"></rect><rect x="1297" y="273" width="46.5" height="18" stroke="gray" stroke-linecap="round" stroke-linejoin="round" stroke-width="1"></rect><line x1="1320.25" y1="307.5" x2="1320.25" y2="300.9" marker-end="url(#FilledArrow_Marker)" stroke="#7f8080" stroke-linecap="round" stroke-linejoin="round" stroke-width="1"></line><circle cx="895.25" cy="233.25" r="23.250037" fill="#dadada"></circle><circle cx="895.25" cy="233.25" r="23.250037" stroke="gray" stroke-linecap="round" stroke-linejoin="round" stroke-width="1"></circle><rect x="872" y="175.5" width="46.5" height="18" fill="#80ff80"></rect><rect x="872" y="175.5" width="46.5" height="18" stroke="gray" stroke-linecap="round" stroke-linejoin="round" stroke-width="1"></rect><line x1="895.25" y1="210" x2="895.25" y2="203.4" marker-end="url(#FilledArrow_Marker)" stroke="#7f8080" stroke-linecap="round" stroke-linejoin="round" stroke-width="1"></line><circle cx="1025.75" cy="233.25" r="23.250037" fill="#dadada"></circle><circle cx="1025.75" cy="233.25" r="23.250037" stroke="gray" stroke-linecap="round" stroke-linejoin="round" stroke-width="1"></circle><rect x="1002.5" y="175.5" width="46.5" height="18" fill="#80ff80"></rect><rect x="1002.5" y="175.5" width="46.5" height="18" stroke="gray" stroke-linecap="round" stroke-linejoin="round" stroke-width="1"></rect><line x1="1025.75" y1="210" x2="1025.75" y2="203.4" marker-end="url(#FilledArrow_Marker)" stroke="#7f8080" stroke-linecap="round" stroke-linejoin="round" stroke-width="1"></line><circle cx="1156.25" cy="233.25" r="23.250037" fill="white"></circle><circle cx="1156.25" cy="233.25" r="23.250037" stroke="gray" stroke-linecap="round" stroke-linejoin="round" stroke-width="1"></circle><rect x="1133" y="175.5" width="46.5" height="18" fill="white"></rect><rect x="1133" y="175.5" width="46.5" height="18" stroke="gray" stroke-linecap="round" stroke-linejoin="round" stroke-width="1"></rect><line x1="1156.25" y1="210" x2="1156.25" y2="203.4" marker-end="url(#FilledArrow_Marker)" stroke="#7f8080" stroke-linecap="round" stroke-linejoin="round" stroke-width="1"></line><circle cx="1286.75" cy="233.25" r="23.250037" fill="white"></circle><circle cx="1286.75" cy="233.25" r="23.250037" stroke="gray" stroke-linecap="round" stroke-linejoin="round" stroke-width="1"></circle><rect x="1263.5" y="175.5" width="46.5" height="18" fill="white"></rect><rect x="1263.5" y="175.5" width="46.5" height="18" stroke="gray" stroke-linecap="round" stroke-linejoin="round" stroke-width="1"></rect><line x1="1286.75" y1="210" x2="1286.75" y2="203.4" marker-end="url(#FilledArrow_Marker)" stroke="#7f8080" stroke-linecap="round" stroke-linejoin="round" stroke-width="1"></line><circle cx="958.75" cy="135.75" r="23.250037" fill="#ff8080"></circle><circle cx="958.75" cy="135.75" r="23.250037" stroke="gray" stroke-linecap="round" stroke-linejoin="round" stroke-width="1"></circle><rect x="935.5" y="78" width="46.5" height="18" fill="white"></rect><rect x="935.5" y="78" width="46.5" height="18" stroke="gray" stroke-linecap="round" stroke-linejoin="round" stroke-width="1"></rect><line x1="958.75" y1="112.49999" x2="958.75" y2="105.9" marker-end="url(#FilledArrow_Marker)" stroke="#7f8080" stroke-linecap="round" stroke-linejoin="round" stroke-width="1"></line><circle cx="1221.75" cy="135.75" r="23.250037" fill="white"></circle><circle cx="1221.75" cy="135.75" r="23.250037" stroke="gray" stroke-linecap="round" stroke-linejoin="round" stroke-width="1"></circle><rect x="1198.5" y="78" width="46.5" height="18" fill="white"></rect><rect x="1198.5" y="78" width="46.5" height="18" stroke="gray" stroke-linecap="round" stroke-linejoin="round" stroke-width="1"></rect><line x1="1221.75" y1="112.49999" x2="1221.75" y2="105.9" marker-end="url(#FilledArrow_Marker)" stroke="#7f8080" stroke-linecap="round" stroke-linejoin="round" stroke-width="1"></line><circle cx="1090.25" cy="41.75" r="23.250037" fill="white"></circle><circle cx="1090.25" cy="41.75" r="23.250037" stroke="gray" stroke-linecap="round" stroke-linejoin="round" stroke-width="1"></circle><line x1="1090.25" y1="18.499988" x2="1090.25" y2="11.9" marker-end="url(#FilledArrow_Marker)" stroke="#7f8080" stroke-linecap="round" stroke-linejoin="round" stroke-width="1"></line><line x1="867.9346" y1="273" x2="876.4732" y2="260.57445" marker-end="url(#FilledArrow_Marker)" stroke="#7f8080" stroke-linecap="round" stroke-linejoin="round" stroke-width="1"></line><line x1="921.3423" y1="273" x2="913.4436" y2="260.96682" marker-end="url(#FilledArrow_Marker)" stroke="#7f8080" stroke-linecap="round" stroke-linejoin="round" stroke-width="1"></line><line x1="998.8423" y1="273" x2="1007.1648" y2="260.70537" marker-end="url(#FilledArrow_Marker)" stroke="#7f8080" stroke-linecap="round" stroke-linejoin="round" stroke-width="1"></line><line x1="1052.25" y1="273" x2="1044.1408" y2="260.83618" marker-end="url(#FilledArrow_Marker)" stroke="#7f8080" stroke-linecap="round" stroke-linejoin="round" stroke-width="1"></line><line x1="1129.75" y1="273" x2="1137.8592" y2="260.83618" marker-end="url(#FilledArrow_Marker)" stroke="#7f8080" stroke-linecap="round" stroke-linejoin="round" stroke-width="1"></line><line x1="1183.1577" y1="273" x2="1174.8352" y2="260.70537" marker-end="url(#FilledArrow_Marker)" stroke="#7f8080" stroke-linecap="round" stroke-linejoin="round" stroke-width="1"></line><line x1="1260.6577" y1="273" x2="1268.5564" y2="260.96682" marker-end="url(#FilledArrow_Marker)" stroke="#7f8080" stroke-linecap="round" stroke-linejoin="round" stroke-width="1"></line><line x1="1314.0654" y1="273" x2="1305.5268" y2="260.57445" marker-end="url(#FilledArrow_Marker)" stroke="#7f8080" stroke-linecap="round" stroke-linejoin="round" stroke-width="1"></line><line x1="906.9731" y1="175.5" x2="932.4532" y2="155.93847" marker-end="url(#FilledArrow_Marker)" stroke="#7f8080" stroke-linecap="round" stroke-linejoin="round" stroke-width="1"></line><line x1="1013.3808" y1="175.5" x2="985.558" y2="155.2558" marker-end="url(#FilledArrow_Marker)" stroke="#7f8080" stroke-linecap="round" stroke-linejoin="round" stroke-width="1"></line><line x1="1168.3423" y1="175.5" x2="1195.1547" y2="155.54424" marker-end="url(#FilledArrow_Marker)" stroke="#7f8080" stroke-linecap="round" stroke-linejoin="round" stroke-width="1"></line><line x1="1274.75" y1="175.5" x2="1248.2723" y2="155.64176" marker-end="url(#FilledArrow_Marker)" stroke="#7f8080" stroke-linecap="round" stroke-linejoin="round" stroke-width="1"></line><line x1="982" y1="78.999525" x2="1058.899" y2="52.5381" marker-end="url(#FilledArrow_Marker)" stroke="#7f8080" stroke-linecap="round" stroke-linejoin="round" stroke-width="1"></line><line x1="1198.5" y1="78.999525" x2="1121.601" y2="52.5381" marker-end="url(#FilledArrow_Marker)" stroke="#7f8080" stroke-linecap="round" stroke-linejoin="round" stroke-width="1"></line><rect x="1067" y="-16" width="46.5" height="18" fill="white"></rect><rect x="1067" y="-16" width="46.5" height="18" stroke="gray" stroke-linecap="round" stroke-linejoin="round" stroke-width="1"></rect></g></g></svg>