<svg width="226" height="88" viewBox="0 0 230 60" xmlns="http://www.w3.org/2000/svg">
 <style type="text/css">.st0{fill:#E57225;}</style>

 <g>
  <title>background</title>
  <rect fill="none" id="canvas_background" height="60" width="228" y="-1" x="-1"/>
 </g>
 <g>
  <title>Layer 1</title>
  <path id="svg_1" d="m19.92,12c0.86,-2.45 2.29,-4.34 4.28,-5.69c1.99,-1.34 3.46,-2.02 6.05,-2.02c3.1,0 5.53,2.11 6.65,3.2c0.73,0.71 1.39,2 2.01,3.55c0.62,1.53 0.98,3.6 0.98,5.42l0,24.98c0,2.88 0.07,4.32 0.67,4.32c1.16,0 1.69,-2.02 2.02,-3.02l9.94,-30.74c0.82,-2.45 2.24,-4.34 4.28,-5.69c2.04,-1.34 3.13,-2.02 5.09,-2.02c1.08,0 1.89,0.16 3.41,0.82c1.54,0.68 2.67,1.34 3.82,2.4c1.15,1.06 1.69,2.43 2.36,3.94c0.67,1.51 1.01,3.18 1.01,5l0,37.58l-9.22,0l0,-36.7c0,-2.88 -0.31,-4.25 -0.59,-4.25c-0.96,0 -1.77,2.09 -2.11,3.1l-10.08,30.67c-0.67,2.45 -2.05,4.36 -4.14,5.72s-3.52,2.05 -6.06,2.05c-2.51,0 -4.9,-1.85 -6.05,-2.9c-1.15,-1.06 -2.07,-2.47 -2.72,-3.99c-0.65,-1.51 -0.86,-3.45 -0.86,-5.28l0,-25.12c0,-2.88 -0.08,-4.25 -0.49,-4.25c-0.92,0 -1.82,2.09 -2.21,3.1l-13.25,37.87l-9.79,0l15,-42.05z" class="st0"/>
  <path id="svg_2" d="m116.58,54.05l-13.97,-39.46c-0.24,-0.62 -0.31,-1.41 -0.81,-1.41s-0.7,0.78 -0.93,1.41l-13.97,39.46l-9.22,0l15.41,-43.2c0.77,-2.16 1.99,-3.77 3.67,-4.82c1.68,-1.06 2.67,-1.57 4.98,-1.57c2.3,0 3.3,0.51 4.98,1.57c1.68,1.06 2.9,2.66 3.67,4.82l15.41,43.2l-9.22,0z" class="st0"/>
  <path id="svg_3" d="m221.48,39.58c0,4.8 -1.38,8.41 -4.14,10.84c-2.76,2.42 -6.61,3.64 -11.56,3.64l-25.48,0l0,-8.64l27.14,0c1.54,0 2.81,-0.59 3.82,-1.76c1.01,-1.18 1.51,-2.6 1.51,-4.28c0,-1.58 -0.5,-2.96 -1.51,-4.14c-1.01,-1.18 -2.28,-1.76 -3.82,-1.76l-13.97,0c-2.88,0 -5.32,-0.43 -7.31,-1.3c-1.99,-0.86 -3.6,-1.99 -4.82,-3.38c-1.22,-1.39 -2.11,-2.94 -2.66,-4.64c-0.55,-1.7 -0.83,-3.4 -0.83,-5.08c0,-2.02 0.29,-3.9 0.86,-5.65c0.58,-1.75 1.5,-3.3 2.77,-4.64c1.27,-1.34 2.89,-2.4 4.86,-3.17c1.97,-0.77 4.34,-1.15 7.13,-1.15l24.77,0l0,8.71l-26.14,0c-0.77,0 -1.49,0.16 -2.16,0.47c-0.67,0.31 -1.26,0.73 -1.76,1.26c-0.5,0.53 -0.91,1.14 -1.22,1.84c-0.31,0.7 -0.47,1.43 -0.47,2.2c0,1.63 0.55,3.01 1.66,4.14c1.1,1.13 2.45,1.69 4.03,1.69l13.75,0c4.8,0 8.59,1.21 11.38,3.64c2.78,2.42 4.18,6.04 4.18,10.84l0,0.32l-0.01,0z" class="st0"/>
  <path id="svg_4" d="m169.85,54.05l-9.22,0l-7.28,-20.59l-7.54,0c0,0 -3.14,-0.07 -4.7,1.58c-1.56,1.65 -1.34,4.97 -1.34,4.97l0,14.04l-8.71,0l0,-14.83c0,-4.8 1.4,-8.41 4.21,-10.84c2.81,-2.42 6.61,-3.64 11.41,-3.64l10.44,0c1.58,0 2.93,-0.56 4.03,-1.69c1.1,-1.13 1.66,-2.51 1.66,-4.14c0,-0.77 -0.16,-1.5 -0.47,-2.2c-0.31,-0.7 -0.72,-1.31 -1.22,-1.84c-0.5,-0.53 -1.09,-0.95 -1.76,-1.26c-0.67,-0.31 -1.39,-0.47 -2.16,-0.47l-26.14,0l0,-8.71l24.77,0c2.74,0 5.09,0.38 7.06,1.15c1.97,0.77 3.59,1.82 4.86,3.17c1.27,1.34 2.21,2.89 2.81,4.64c0.6,1.75 0.9,3.64 0.9,5.65c0,1.73 -0.28,3.46 -0.83,5.18c-0.55,1.73 -1.45,3.28 -2.7,4.64c-1.25,1.37 -2.87,2.47 -4.86,3.31c-0.28,0.12 -0.57,0.23 -0.86,0.33l7.64,21.55z" class="st0"/>
 </g>
</svg>